<?xml version="1.0" standalone="no"?>
<!DOCTYPE svg PUBLIC "-//W3C//DTD SVG 20010904//EN"
 "http://www.w3.org/TR/2001/REC-SVG-20010904/DTD/svg10.dtd">
<svg version="1.0" xmlns="http://www.w3.org/2000/svg"
 width="414.000000pt" height="254.000000pt" viewBox="0 0 414.000000 254.000000"
 preserveAspectRatio="xMidYMid meet">
<metadata>
Created by potrace 1.16, written by Peter Selinger 2001-2019
</metadata>
<g transform="translate(0.000000,254.000000) scale(0.100000,-0.100000)"
fill="#FF55BB" stroke="none">
<path d="M2561 2114 c-30 -8 -153 -60 -275 -115 -499 -227 -727 -314 -1030
-393 -131 -35 -223 -84 -289 -155 -61 -67 -91 -123 -114 -215 -15 -61 -15 -71
1 -133 19 -79 63 -151 121 -198 23 -19 114 -68 201 -108 193 -88 258 -130 344
-221 131 -139 160 -165 200 -186 119 -61 290 -20 465 112 203 152 570 564 697
782 202 346 237 602 101 747 -66 71 -124 92 -258 96 -75 1 -127 -3 -164 -13z
m-364 -546 c9 -7 22 -28 30 -45 11 -28 11 -38 -2 -68 -13 -33 -13 -38 5 -68
15 -24 20 -50 20 -109 l0 -78 -110 0 -110 0 0 84 c0 67 4 88 19 107 17 22 17
28 5 49 -7 14 -13 36 -14 48 0 31 28 78 54 91 25 13 82 7 103 -11z m-207 -43
l0 -25 -110 0 -111 0 3 -87 c3 -85 2 -88 -19 -91 -23 -3 -23 -2 -23 112 l0
116 130 0 130 0 0 -25z m-152 -260 c37 -31 47 -77 27 -118 -14 -28 -14 -32 2
-50 14 -14 19 -41 22 -108 l3 -90 -113 3 -114 3 0 77 c1 63 5 83 22 106 18 25
19 31 7 53 -52 95 61 194 144 124z m367 -210 l0 -110 -132 -3 -133 -3 0 26 0
25 110 0 110 0 0 91 c0 88 1 90 23 87 21 -3 22 -7 22 -113z"/>
<path d="M2103 1382 c-17 -11 -33 -58 -33 -98 l0 -34 71 0 72 0 -6 51 c-4 29
-14 60 -23 70 -17 19 -59 25 -81 11z"/>
<path d="M1740 1072 c-16 -13 -24 -32 -28 -70 l-5 -52 67 0 66 0 0 50 c0 79
-49 114 -100 72z"/>
</g>
</svg>