<?xml version="1.0" standalone="no"?>
<!DOCTYPE svg PUBLIC "-//W3C//DTD SVG 20010904//EN"
 "http://www.w3.org/TR/2001/REC-SVG-20010904/DTD/svg10.dtd">
<svg version="1.0" xmlns="http://www.w3.org/2000/svg"
 width="414.000000pt" height="254.000000pt" viewBox="0 0 325.000000 251.000000"
 preserveAspectRatio="xMidYMid meet">
<metadata>
Created by potrace 1.16, written by Peter Selinger 2001-2019
</metadata>
<g transform="translate(0.000000,251.000000) scale(0.100000,-0.100000)"
fill="violet" stroke="none">
<path d="M1290 2145 c-89 -28 -156 -107 -188 -222 -13 -46 -16 -98 -15 -248 4
-350 -30 -493 -180 -755 -85 -148 -99 -203 -73 -292 23 -80 80 -140 180 -188
449 -217 1228 193 1342 708 28 128 4 229 -74 309 -49 51 -104 80 -239 127 -56
19 -121 45 -145 57 -70 36 -156 125 -228 260 -76 135 -120 186 -192 222 -66
34 -129 41 -188 22z m483 -549 c95 -34 156 -116 165 -221 16 -203 -178 -336
-365 -250 -53 24 -57 24 -75 9 -16 -15 -17 -19 -3 -34 14 -15 8 -24 -64 -93
-83 -81 -107 -91 -149 -61 -15 10 -22 25 -22 46 0 24 15 46 77 109 69 72 78
78 93 64 15 -14 19 -13 34 3 15 18 15 22 -10 77 -23 49 -26 67 -22 124 8 107
62 183 160 226 41 18 131 18 181 1z"/>
<path d="M1638 1559 c-109 -25 -186 -142 -163 -247 21 -99 127 -179 225 -170
155 15 240 178 165 316 -42 78 -100 122 -227 101z m106 -90 c29 -34 31 -45 16
-84 -8 -20 -6 -32 5 -48 8 -12 15 -43 15 -69 l0 -48 -95 0 -95 0 0 48 c0 28 7
57 16 71 13 18 14 28 5 47 -16 36 -14 49 15 83 19 23 34 21 59 31 25 0 40 -8
59 -31z"/>
</g>
</svg>