<svg id="svg" version="1.1" xmlns="http://www.w3.org/2000/svg" xmlns:xlink="http://www.w3.org/1999/xlink" width="400" height="239.58868894601542" viewBox="0, 0, 400,239.58868894601542"><g id="svgg"><path id="path0" d="M247.933 28.444 C 240.737 29.007,234.662 30.602,222.528 35.115 C 214.816 37.983,203.249 42.914,199.641 44.872 C 186.920 51.773,173.124 60.997,161.113 70.631 C 147.459 81.584,140.438 88.422,129.348 101.573 C 117.129 116.063,106.041 136.744,103.434 149.910 C 99.850 168.010,101.556 176.542,109.868 182.102 C 116.449 186.504,123.149 187.450,147.385 187.400 C 164.575 187.365,171.625 187.657,179.629 188.737 C 200.956 191.615,218.108 197.190,233.638 206.293 C 242.315 211.379,255.636 213.877,263.436 211.883 C 277.140 208.378,283.531 197.626,281.148 182.088 C 280.087 175.179,279.333 172.273,272.014 146.914 C 262.757 114.839,261.469 96.473,266.268 64.949 C 268.669 49.175,268.213 42.307,264.379 36.507 C 261.259 31.786,257.674 29.441,252.547 28.765 C 249.867 28.412,249.057 28.356,247.933 28.444 M254.466 29.341 C 259.846 30.678,264.214 35.042,266.145 41.009 C 267.867 46.332,267.781 51.955,265.784 64.470 C 263.010 81.860,262.621 85.794,262.595 96.705 C 262.576 104.641,262.710 106.769,263.767 115.398 C 264.369 120.310,266.366 132.593,266.633 133.025 C 266.686 133.109,266.956 134.247,267.234 135.553 C 267.848 138.436,268.371 140.677,269.747 146.315 C 270.326 148.688,270.852 150.899,270.917 151.228 C 271.091 152.116,271.732 154.991,272.102 156.538 C 272.280 157.284,272.387 158.243,272.340 158.669 C 272.294 159.095,272.347 159.563,272.460 159.710 C 272.884 160.263,272.966 160.795,272.606 160.657 C 272.344 160.557,272.259 160.728,272.259 161.356 L 272.259 162.188 271.240 161.976 C 270.680 161.859,269.826 161.699,269.343 161.620 C 268.761 161.525,268.425 161.324,268.347 161.026 C 268.246 160.640,267.992 160.575,266.571 160.575 C 265.129 160.575,264.842 160.500,264.371 159.998 C 263.941 159.541,263.481 159.386,262.155 159.253 C 261.148 159.152,260.433 158.962,260.362 158.778 C 260.296 158.604,259.417 158.336,258.343 158.161 C 257.297 157.991,256.441 157.778,256.441 157.687 C 256.441 157.596,255.929 157.384,255.303 157.215 C 254.676 157.046,254.002 156.774,253.805 156.610 C 253.607 156.446,252.748 156.234,251.897 156.138 C 250.509 155.981,249.595 155.685,249.251 155.282 C 249.014 155.004,247.485 154.584,246.711 154.584 C 246.276 154.584,245.833 154.441,245.728 154.267 C 245.622 154.093,244.727 153.807,243.739 153.631 C 242.735 153.452,241.726 153.118,241.453 152.875 C 241.128 152.584,240.390 152.386,239.236 152.279 C 238.020 152.166,237.507 152.022,237.507 151.793 C 237.507 151.614,237.305 151.468,237.057 151.468 C 236.810 151.468,236.220 151.306,235.747 151.108 C 235.274 150.911,234.566 150.749,234.174 150.749 C 233.782 150.749,233.395 150.641,233.313 150.509 C 233.232 150.377,232.856 150.270,232.478 150.270 C 232.099 150.270,231.628 150.108,231.430 149.910 C 231.233 149.712,230.692 149.551,230.229 149.551 C 229.766 149.551,229.321 149.443,229.239 149.311 C 229.158 149.179,228.716 149.071,228.259 149.071 C 227.740 149.071,227.375 148.936,227.289 148.712 C 227.213 148.514,226.968 148.352,226.745 148.352 C 226.522 148.352,226.225 148.238,226.086 148.099 C 225.946 147.959,225.221 147.782,224.473 147.705 C 223.725 147.628,223.056 147.472,222.987 147.359 C 222.917 147.246,222.592 147.154,222.265 147.154 C 221.938 147.154,221.378 146.940,221.021 146.679 C 220.590 146.363,219.792 146.151,218.647 146.046 C 217.531 145.945,216.878 145.774,216.797 145.563 C 216.720 145.364,216.302 145.237,215.722 145.237 C 214.991 145.237,214.737 145.129,214.624 144.771 C 214.503 144.391,214.166 144.274,212.805 144.140 C 211.886 144.049,211.076 143.882,211.005 143.767 C 210.934 143.653,210.441 143.559,209.909 143.559 C 209.160 143.559,208.916 143.456,208.823 143.103 C 208.724 142.722,208.391 142.619,206.825 142.480 C 203.245 142.163,204.256 141.728,208.922 141.577 C 211.241 141.502,213.195 141.336,213.275 141.207 C 213.358 141.074,216.021 140.881,219.419 140.761 C 224.723 140.574,225.511 140.495,226.225 140.077 C 228.711 138.621,228.881 135.100,226.589 132.519 C 225.988 131.843,225.492 131.015,225.416 130.563 C 225.249 129.575,224.806 110.486,224.805 104.277 L 224.805 99.627 225.729 98.765 C 227.415 97.192,227.565 96.354,227.266 90.184 C 227.044 85.614,226.870 85.147,225.189 84.624 C 223.584 84.124,157.692 84.029,156.749 84.525 C 155.148 85.365,154.954 86.057,154.858 91.258 C 154.751 96.997,154.804 97.286,156.217 98.801 L 157.340 100.004 157.277 103.986 C 157.215 107.868,156.933 113.926,156.524 120.159 C 156.397 122.083,156.214 123.308,156.036 123.418 C 155.878 123.516,155.689 124.407,155.613 125.408 C 155.508 126.802,155.401 127.192,155.150 127.096 C 154.970 127.027,154.823 126.821,154.823 126.637 C 154.823 126.453,154.742 126.302,154.643 126.301 C 153.713 126.292,151.271 125.720,150.960 125.438 C 150.731 125.231,149.851 125.022,148.860 124.939 C 147.745 124.845,147.154 124.693,147.154 124.500 C 147.154 123.938,146.511 123.677,144.740 123.521 C 142.969 123.365,140.923 122.669,140.923 122.223 C 140.923 122.094,140.451 121.989,139.874 121.989 C 139.271 121.989,138.707 121.848,138.548 121.656 C 138.396 121.473,137.702 121.252,137.005 121.165 C 136.308 121.078,135.436 120.851,135.067 120.659 C 134.699 120.468,134.093 120.312,133.722 120.312 C 133.352 120.312,132.886 120.150,132.689 119.952 C 132.491 119.754,132.181 119.593,132.000 119.593 C 131.820 119.593,131.569 119.493,131.444 119.371 C 131.319 119.250,130.677 119.039,130.018 118.903 C 129.359 118.767,128.496 118.587,128.101 118.503 C 127.705 118.419,127.042 118.199,126.626 118.013 C 126.211 117.827,125.537 117.675,125.129 117.675 C 124.720 117.675,124.386 117.567,124.386 117.436 C 124.386 117.304,124.115 117.196,123.783 117.196 C 123.061 117.196,123.068 115.023,123.793 113.917 C 124.008 113.588,124.129 113.264,124.061 113.196 C 123.993 113.128,124.308 112.546,124.761 111.901 C 125.214 111.257,125.584 110.663,125.584 110.581 C 125.584 110.154,130.973 102.381,132.216 101.016 C 132.778 100.398,134.176 98.661,135.319 97.160 C 138.267 93.288,148.162 83.045,153.265 78.583 C 154.979 77.085,156.435 75.800,156.501 75.728 C 156.567 75.657,157.160 75.172,157.819 74.651 C 158.478 74.130,159.934 72.942,161.055 72.011 C 166.674 67.342,167.859 66.390,169.828 64.966 C 171.000 64.119,172.930 62.703,174.116 61.820 C 188.921 50.796,204.134 42.537,222.409 35.604 C 238.639 29.446,247.734 27.669,254.466 29.341 M225.543 86.021 L 226.243 86.722 226.243 91.429 C 226.243 96.609,226.243 96.608,224.692 98.108 L 223.664 99.101 223.541 104.973 C 223.331 114.925,223.362 130.927,223.593 131.909 C 223.734 132.510,224.202 133.238,224.907 133.955 C 226.157 135.223,226.367 136.346,225.546 137.361 L 225.088 137.927 210.027 138.047 C 193.720 138.176,194.154 138.137,193.674 139.515 C 193.000 141.450,193.416 142.900,195.179 144.751 C 200.017 149.829,194.844 157.522,188.663 154.442 C 184.753 152.494,184.180 148.084,187.394 144.685 C 189.119 142.861,189.602 140.921,188.745 139.262 C 188.180 138.171,188.198 138.172,172.678 138.047 C 164.506 137.981,157.627 137.833,157.393 137.719 C 156.063 137.070,156.182 135.452,157.668 133.958 C 159.219 132.398,159.138 133.400,159.135 116.028 C 159.132 98.289,159.221 99.355,157.608 97.785 L 156.381 96.590 156.307 91.774 C 156.227 86.580,156.332 86.046,157.533 85.563 C 157.828 85.444,172.741 85.344,191.450 85.336 L 224.842 85.321 225.543 86.021 M161.387 90.196 C 160.491 90.967,160.492 92.138,161.391 92.911 L 162.046 93.475 191.364 93.412 C 224.442 93.341,221.690 93.512,221.690 91.532 C 221.690 89.467,224.373 89.635,191.233 89.635 L 162.040 89.635 161.387 90.196 M219.893 90.833 C 220.733 91.153,220.636 92.048,219.736 92.288 C 218.560 92.600,163.010 92.165,162.686 91.841 C 161.844 90.999,162.571 90.956,179.700 90.829 C 212.340 90.587,219.247 90.588,219.893 90.833 M164.911 97.992 C 163.263 98.453,163.331 97.682,163.331 115.877 C 163.331 134.072,163.263 133.302,164.911 133.763 C 165.642 133.968,216.534 133.969,217.470 133.764 C 219.257 133.374,219.179 134.219,219.122 115.829 C 219.064 97.564,219.154 98.513,217.438 98.036 C 216.430 97.756,165.906 97.714,164.911 97.992 M217.376 99.461 C 217.945 100.030,217.982 102.573,217.618 115.998 C 217.345 126.060,217.088 128.571,216.581 126.128 C 216.358 125.057,215.075 123.711,214.001 123.422 C 212.609 123.047,206.254 123.153,205.429 123.565 C 203.274 124.640,202.644 128.175,204.243 130.214 C 204.638 130.717,204.888 131.202,204.798 131.292 C 204.511 131.579,192.730 131.611,188.376 131.337 C 186.070 131.191,181.809 131.003,178.910 130.918 C 176.010 130.833,173.960 130.689,174.356 130.599 C 175.014 130.448,174.988 130.432,174.056 130.406 C 173.496 130.390,173.038 130.270,173.038 130.138 C 173.038 130.006,172.795 129.896,172.499 129.894 C 171.463 129.887,171.412 129.537,172.440 129.497 C 173.482 129.457,174.476 129.085,174.476 128.735 C 174.476 128.632,175.312 127.688,176.333 126.637 C 177.355 125.587,179.362 123.410,180.794 121.800 C 184.169 118.006,183.856 118.006,187.559 121.791 C 194.450 128.835,194.781 128.886,199.552 123.667 C 206.841 115.692,207.599 115.066,209.141 115.748 C 210.465 116.334,212.545 116.393,213.549 115.874 C 214.940 115.154,215.105 114.454,215.040 109.566 C 214.949 102.749,214.793 102.590,208.149 102.582 C 202.052 102.575,200.166 104.096,201.771 107.724 C 202.605 109.610,202.590 109.639,198.942 113.188 C 194.376 117.630,195.108 117.665,189.878 112.747 C 185.409 108.544,184.660 108.142,182.774 108.930 C 182.096 109.214,175.970 114.787,173.991 116.922 C 173.790 117.138,172.585 118.262,171.314 119.418 C 168.481 121.995,167.712 123.192,167.813 124.868 C 167.853 125.526,167.973 126.063,168.081 126.063 C 168.189 126.063,168.214 126.260,168.138 126.501 C 168.041 126.807,168.340 127.290,169.140 128.118 C 169.768 128.768,170.090 129.149,169.856 128.965 C 169.623 128.782,169.365 128.697,169.285 128.778 C 169.204 128.859,169.484 129.117,169.908 129.351 C 171.682 130.336,171.632 130.419,169.360 130.284 C 166.750 130.129,166.654 130.051,166.442 127.911 C 166.347 126.961,166.178 126.125,166.066 126.054 C 165.763 125.861,165.402 119.407,165.131 109.330 C 164.910 101.122,164.947 99.926,165.437 99.406 C 165.513 99.326,188.903 99.101,203.895 99.037 C 216.615 98.983,216.907 98.992,217.376 99.461 M167.837 101.368 C 165.728 102.654,165.686 106.395,167.765 107.798 C 168.766 108.474,175.850 108.523,177.168 107.863 C 179.376 106.760,179.225 102.176,176.951 101.226 C 175.614 100.667,168.812 100.773,167.837 101.368 M175.803 102.685 C 177.184 103.262,177.477 105.070,176.354 106.087 C 175.926 106.475,175.439 106.531,172.513 106.531 L 169.162 106.531 168.583 105.858 C 167.600 104.715,168.081 103.016,169.506 102.604 C 170.776 102.237,174.857 102.289,175.803 102.685 M212.997 104.559 C 214.171 105.734,214.124 112.800,212.934 113.991 C 212.075 114.849,210.943 114.754,209.706 113.721 C 208.110 112.387,208.511 112.129,201.443 119.047 C 193.968 126.364,195.026 126.237,189.187 120.524 C 183.765 115.219,184.414 115.168,178.066 121.401 C 172.845 126.527,172.492 126.738,171.229 125.475 C 169.844 124.090,169.952 123.927,177.090 116.597 C 184.629 108.854,183.518 109.019,189.552 114.746 C 195.041 119.954,194.395 119.997,200.300 114.032 C 204.881 109.403,204.948 109.281,203.715 107.729 C 202.831 106.617,202.726 105.200,203.480 104.551 C 204.742 103.466,211.910 103.471,212.997 104.559 M122.861 118.273 C 123.238 118.470,123.729 118.632,123.952 118.632 C 124.175 118.633,124.424 118.742,124.506 118.874 C 124.587 119.005,125.019 119.113,125.464 119.113 C 125.910 119.113,126.342 119.221,126.423 119.353 C 126.504 119.485,126.929 119.593,127.366 119.593 C 127.804 119.593,128.296 119.754,128.460 119.952 C 128.624 120.150,129.110 120.312,129.539 120.312 C 129.968 120.312,130.453 120.473,130.617 120.671 C 130.781 120.869,131.273 121.031,131.711 121.031 C 132.148 121.031,132.573 121.138,132.654 121.270 C 132.736 121.402,133.059 121.510,133.373 121.510 C 133.687 121.510,134.007 121.612,134.084 121.736 C 134.160 121.860,134.714 122.035,135.315 122.125 C 135.915 122.215,136.587 122.482,136.807 122.718 C 137.086 123.017,137.755 123.200,139.005 123.321 C 139.994 123.417,140.857 123.561,140.923 123.641 C 141.313 124.116,143.267 124.865,144.121 124.867 C 144.669 124.867,145.426 125.029,145.803 125.226 C 146.181 125.423,146.639 125.584,146.822 125.584 C 147.005 125.584,147.154 125.679,147.154 125.796 C 147.154 125.912,147.963 126.083,148.952 126.176 C 150.349 126.307,150.825 126.450,151.082 126.818 C 151.318 127.155,151.797 127.330,152.749 127.429 C 153.564 127.513,154.270 127.740,154.563 128.013 C 154.827 128.259,155.140 128.460,155.258 128.460 C 155.652 128.460,155.821 131.373,155.452 131.796 C 153.764 133.727,153.819 137.638,155.554 139.098 C 156.652 140.022,157.528 140.145,164.170 140.304 C 174.497 140.552,183.891 140.896,184.961 141.065 C 185.978 141.225,186.473 142.267,185.746 142.717 C 185.179 143.067,183.855 145.469,183.581 146.643 C 181.515 155.524,193.059 160.615,198.136 153.062 C 200.094 150.149,199.932 144.562,197.832 142.590 C 197.508 142.286,197.244 141.940,197.244 141.821 C 197.244 141.569,200.355 141.843,200.719 142.126 C 200.851 142.229,201.794 142.390,202.816 142.485 C 204.387 142.630,204.673 142.724,204.673 143.092 C 204.673 143.584,204.968 143.698,206.830 143.924 C 207.555 144.012,208.364 144.220,208.628 144.386 C 209.077 144.669,209.697 144.831,211.555 145.153 C 211.979 145.227,212.451 145.438,212.603 145.621 C 212.756 145.805,213.179 145.956,213.543 145.956 C 213.907 145.956,214.514 146.117,214.892 146.314 C 215.269 146.511,215.875 146.672,216.237 146.673 C 216.600 146.674,216.896 146.778,216.896 146.903 C 216.896 147.029,217.301 147.197,217.795 147.276 C 218.289 147.355,218.881 147.522,219.110 147.646 C 219.339 147.771,219.845 147.873,220.234 147.873 C 220.624 147.873,221.009 147.981,221.090 148.113 C 221.172 148.244,221.535 148.352,221.898 148.352 C 222.260 148.352,222.766 148.511,223.022 148.704 C 223.278 148.898,223.880 149.059,224.360 149.064 C 224.910 149.068,225.284 149.205,225.371 149.431 C 225.457 149.655,225.823 149.790,226.341 149.790 C 226.799 149.790,227.240 149.898,227.322 150.030 C 227.403 150.162,227.787 150.270,228.175 150.270 C 228.562 150.270,228.880 150.377,228.880 150.509 C 228.880 150.641,229.334 150.749,229.889 150.749 C 230.671 150.749,231.009 150.882,231.387 151.341 C 231.791 151.830,232.208 151.974,233.793 152.169 C 236.728 152.532,237.238 152.673,237.396 153.172 C 237.506 153.517,237.769 153.625,238.506 153.625 C 239.037 153.625,239.812 153.772,240.227 153.951 C 241.947 154.692,242.326 154.802,243.705 154.958 C 244.779 155.080,245.285 155.268,245.684 155.691 C 246.104 156.139,246.467 156.261,247.380 156.261 C 248.206 156.261,248.816 156.434,249.491 156.860 C 250.013 157.190,250.759 157.460,251.149 157.460 C 251.540 157.460,251.926 157.567,252.007 157.699 C 252.089 157.831,252.580 157.939,253.100 157.939 C 253.619 157.939,254.044 158.047,254.044 158.179 C 254.044 158.310,254.271 158.418,254.547 158.418 C 254.824 158.418,255.390 158.571,255.806 158.758 C 256.519 159.078,257.101 159.216,259.077 159.535 C 259.539 159.609,260.132 159.862,260.395 160.098 C 260.681 160.352,261.471 160.592,262.347 160.691 C 263.479 160.818,263.937 160.990,264.323 161.435 C 264.766 161.944,265.028 162.013,266.513 162.013 C 267.791 162.013,268.233 162.100,268.338 162.373 C 268.413 162.570,268.767 162.732,269.123 162.732 C 269.479 162.732,269.980 162.891,270.236 163.084 C 270.492 163.278,271.052 163.439,271.480 163.444 C 271.936 163.448,272.261 163.575,272.264 163.751 C 272.267 163.916,272.617 164.212,273.043 164.410 C 273.600 164.668,273.850 164.971,273.936 165.488 C 274.002 165.884,274.268 166.520,274.527 166.903 C 275.433 168.241,276.740 171.785,278.114 176.633 C 282.945 193.673,279.011 204.756,266.317 209.875 C 257.752 213.329,243.993 211.349,233.553 205.160 C 218.380 196.166,200.385 190.418,178.790 187.667 C 171.417 186.728,168.241 186.614,148.352 186.579 C 123.164 186.534,118.450 186.000,111.923 182.458 C 102.606 177.400,100.583 168.734,104.500 150.658 C 106.584 141.037,113.817 126.372,119.406 120.435 C 120.028 119.774,120.764 118.936,121.041 118.574 C 121.617 117.820,121.902 117.773,122.861 118.273 M213.911 125.693 C 214.636 126.417,214.695 127.686,214.042 128.494 C 213.614 129.023,213.395 129.065,210.665 129.140 C 206.542 129.253,205.632 128.890,205.632 127.131 C 205.632 125.412,206.304 125.105,210.066 125.105 C 213.205 125.105,213.345 125.126,213.911 125.693 M217.099 129.721 C 217.174 131.169,216.633 131.728,215.279 131.603 C 214.900 131.569,214.881 130.857,215.259 130.857 C 215.412 130.857,215.483 130.802,215.415 130.734 C 215.326 130.644,216.861 128.700,217.022 128.700 C 217.035 128.700,217.070 129.160,217.099 129.721 M190.294 148.113 C 189.695 148.711,189.677 149.592,190.253 150.113 C 191.170 150.943,192.690 150.319,192.690 149.112 C 192.690 148.460,191.886 147.633,191.252 147.633 C 190.989 147.633,190.557 147.849,190.294 148.113 " stroke="none" fill="#91bc3a" fill-rule="evenodd"></path><path id="path1" d="M244.613 29.016 C 235.808 30.230,215.508 37.575,201.334 44.674 C 195.785 47.454,180.360 57.170,174.116 61.820 C 172.930 62.703,171.000 64.119,169.828 64.966 C 167.859 66.390,166.674 67.342,161.055 72.011 C 159.934 72.942,158.478 74.130,157.819 74.651 C 157.160 75.172,156.567 75.657,156.501 75.728 C 156.435 75.800,154.979 77.085,153.265 78.583 C 148.162 83.045,138.267 93.288,135.319 97.160 C 134.176 98.661,132.778 100.398,132.216 101.016 C 130.973 102.381,125.584 110.154,125.584 110.581 C 125.584 110.663,125.214 111.257,124.761 111.901 C 124.308 112.546,123.993 113.128,124.061 113.196 C 124.129 113.264,124.008 113.588,123.793 113.917 C 123.068 115.023,123.061 117.196,123.783 117.196 C 124.115 117.196,124.386 117.304,124.386 117.436 C 124.386 117.567,124.720 117.675,125.129 117.675 C 125.537 117.675,126.211 117.827,126.626 118.013 C 127.042 118.199,127.705 118.419,128.101 118.503 C 128.496 118.587,129.359 118.767,130.018 118.903 C 130.677 119.039,131.319 119.250,131.444 119.371 C 131.569 119.493,131.820 119.593,132.000 119.593 C 132.181 119.593,132.491 119.754,132.689 119.952 C 132.886 120.150,133.352 120.312,133.722 120.312 C 134.093 120.312,134.699 120.468,135.067 120.659 C 135.436 120.851,136.308 121.078,137.005 121.165 C 137.702 121.252,138.396 121.473,138.548 121.656 C 138.707 121.848,139.271 121.989,139.874 121.989 C 140.451 121.989,140.923 122.094,140.923 122.223 C 140.923 122.669,142.969 123.365,144.740 123.521 C 146.511 123.677,147.154 123.938,147.154 124.500 C 147.154 124.693,147.745 124.845,148.860 124.939 C 149.851 125.022,150.731 125.231,150.960 125.438 C 151.271 125.720,153.713 126.292,154.643 126.301 C 154.742 126.302,154.823 126.453,154.823 126.637 C 154.823 126.821,154.970 127.027,155.150 127.096 C 155.401 127.192,155.508 126.802,155.613 125.408 C 155.689 124.407,155.878 123.516,156.036 123.418 C 156.214 123.308,156.397 122.083,156.524 120.159 C 156.933 113.926,157.215 107.868,157.277 103.986 L 157.340 100.004 156.217 98.801 C 154.804 97.286,154.751 96.997,154.858 91.258 C 154.954 86.057,155.148 85.365,156.749 84.525 C 157.692 84.029,223.584 84.124,225.189 84.624 C 226.870 85.147,227.044 85.614,227.266 90.184 C 227.565 96.354,227.415 97.192,225.729 98.765 L 224.805 99.627 224.805 104.277 C 224.806 110.486,225.249 129.575,225.416 130.563 C 225.492 131.015,225.988 131.843,226.589 132.519 C 228.881 135.100,228.711 138.621,226.225 140.077 C 225.511 140.495,224.723 140.574,219.419 140.761 C 216.021 140.881,213.358 141.074,213.275 141.207 C 213.195 141.336,211.241 141.502,208.922 141.577 C 204.256 141.728,203.245 142.163,206.825 142.480 C 208.391 142.619,208.724 142.722,208.823 143.103 C 208.916 143.456,209.160 143.559,209.909 143.559 C 210.441 143.559,210.934 143.653,211.005 143.767 C 211.076 143.882,211.886 144.049,212.805 144.140 C 214.166 144.274,214.503 144.391,214.624 144.771 C 214.737 145.129,214.991 145.237,215.722 145.237 C 216.302 145.237,216.720 145.364,216.797 145.563 C 216.878 145.774,217.531 145.945,218.647 146.046 C 219.792 146.151,220.590 146.363,221.021 146.679 C 221.378 146.940,221.938 147.154,222.265 147.154 C 222.592 147.154,222.917 147.246,222.987 147.359 C 223.056 147.472,223.725 147.628,224.473 147.705 C 225.221 147.782,225.946 147.959,226.086 148.099 C 226.225 148.238,226.522 148.352,226.745 148.352 C 226.968 148.352,227.213 148.514,227.289 148.712 C 227.375 148.936,227.740 149.071,228.259 149.071 C 228.716 149.071,229.158 149.179,229.239 149.311 C 229.321 149.443,229.766 149.551,230.229 149.551 C 230.692 149.551,231.233 149.712,231.430 149.910 C 231.628 150.108,232.099 150.270,232.478 150.270 C 232.856 150.270,233.232 150.377,233.313 150.509 C 233.395 150.641,233.782 150.749,234.174 150.749 C 234.566 150.749,235.274 150.911,235.747 151.108 C 236.220 151.306,236.810 151.468,237.057 151.468 C 237.305 151.468,237.507 151.614,237.507 151.793 C 237.507 152.022,238.020 152.166,239.236 152.279 C 240.390 152.386,241.128 152.584,241.453 152.875 C 241.726 153.118,242.735 153.452,243.739 153.631 C 244.727 153.807,245.622 154.093,245.728 154.267 C 245.833 154.441,246.276 154.584,246.711 154.584 C 247.485 154.584,249.014 155.004,249.251 155.282 C 249.595 155.685,250.509 155.981,251.897 156.138 C 252.748 156.234,253.607 156.446,253.805 156.610 C 254.002 156.774,254.676 157.046,255.303 157.215 C 255.929 157.384,256.441 157.596,256.441 157.687 C 256.441 157.778,257.297 157.991,258.343 158.161 C 259.417 158.336,260.296 158.604,260.362 158.778 C 260.433 158.962,261.148 159.152,262.155 159.253 C 263.481 159.386,263.941 159.541,264.371 159.998 C 264.842 160.500,265.129 160.575,266.571 160.575 C 267.992 160.575,268.246 160.640,268.347 161.026 C 268.425 161.324,268.761 161.525,269.343 161.620 C 269.826 161.699,270.680 161.859,271.240 161.976 L 272.259 162.188 272.259 161.356 C 272.259 160.728,272.344 160.557,272.606 160.657 C 272.966 160.795,272.884 160.263,272.460 159.710 C 272.347 159.563,272.294 159.095,272.340 158.669 C 272.387 158.243,272.280 157.284,272.102 156.538 C 271.732 154.991,271.091 152.116,270.917 151.228 C 270.852 150.899,270.326 148.688,269.747 146.315 C 268.371 140.677,267.848 138.436,267.234 135.553 C 266.956 134.247,266.686 133.109,266.633 133.025 C 266.366 132.593,264.369 120.310,263.767 115.398 C 262.710 106.769,262.576 104.641,262.595 96.705 C 262.621 85.794,263.010 81.860,265.784 64.470 C 266.320 61.108,266.930 56.471,267.139 54.164 C 268.749 36.415,260.196 26.866,244.613 29.016 M179.700 90.829 C 162.571 90.956,161.844 90.999,162.686 91.841 C 163.010 92.165,218.560 92.600,219.736 92.288 C 220.636 92.048,220.733 91.153,219.893 90.833 C 219.247 90.588,212.340 90.587,179.700 90.829 M178.191 99.222 C 171.204 99.293,165.465 99.376,165.437 99.406 C 164.947 99.926,164.910 101.122,165.131 109.330 C 165.402 119.407,165.763 125.861,166.066 126.054 C 166.178 126.125,166.347 126.961,166.442 127.911 C 166.654 130.051,166.750 130.129,169.360 130.284 C 171.632 130.419,171.682 130.336,169.908 129.351 C 169.484 129.117,169.204 128.859,169.285 128.778 C 169.365 128.697,169.623 128.782,169.856 128.965 C 170.090 129.149,169.768 128.768,169.140 128.118 C 168.340 127.290,168.041 126.807,168.138 126.501 C 168.214 126.260,168.189 126.063,168.081 126.063 C 167.973 126.063,167.853 125.526,167.813 124.868 C 167.712 123.192,168.481 121.995,171.314 119.418 C 172.585 118.262,173.790 117.138,173.991 116.922 C 175.970 114.787,182.096 109.214,182.774 108.930 C 184.660 108.142,185.409 108.544,189.878 112.747 C 195.108 117.665,194.376 117.630,198.942 113.188 C 202.590 109.639,202.605 109.610,201.771 107.724 C 200.166 104.096,202.052 102.575,208.149 102.582 C 214.793 102.590,214.949 102.749,215.040 109.566 C 215.105 114.454,214.940 115.154,213.549 115.874 C 212.545 116.393,210.465 116.334,209.141 115.748 C 207.599 115.066,206.841 115.692,199.552 123.667 C 194.781 128.886,194.450 128.835,187.559 121.791 C 183.856 118.006,184.169 118.006,180.794 121.800 C 179.362 123.410,177.355 125.587,176.333 126.637 C 175.312 127.688,174.476 128.632,174.476 128.735 C 174.476 129.085,173.482 129.457,172.440 129.497 C 171.412 129.537,171.463 129.887,172.499 129.894 C 172.795 129.896,173.038 130.006,173.038 130.138 C 173.038 130.270,173.496 130.390,174.056 130.406 C 174.988 130.432,175.014 130.448,174.356 130.599 C 173.960 130.689,176.010 130.833,178.910 130.918 C 181.809 131.003,186.070 131.191,188.376 131.337 C 192.730 131.611,204.511 131.579,204.798 131.292 C 204.888 131.202,204.638 130.717,204.243 130.214 C 202.644 128.175,203.274 124.640,205.429 123.565 C 206.254 123.153,212.609 123.047,214.001 123.422 C 215.075 123.711,216.358 125.057,216.581 126.128 C 217.088 128.571,217.345 126.060,217.618 115.998 C 217.982 102.573,217.945 100.030,217.376 99.461 C 216.849 98.934,210.386 98.894,178.191 99.222 M176.951 101.226 C 179.225 102.176,179.376 106.760,177.168 107.863 C 175.850 108.523,168.766 108.474,167.765 107.798 C 165.686 106.395,165.728 102.654,167.837 101.368 C 168.812 100.773,175.614 100.667,176.951 101.226 M216.145 129.655 C 215.676 130.181,215.348 130.666,215.415 130.734 C 215.483 130.802,215.412 130.857,215.259 130.857 C 214.881 130.857,214.900 131.569,215.279 131.603 C 216.633 131.728,217.174 131.169,217.099 129.721 C 217.070 129.160,217.035 128.700,217.022 128.700 C 217.009 128.700,216.614 129.130,216.145 129.655 " stroke="none" fill="#92bc38" fill-rule="evenodd"></path><path id="path2" d="M0.000 119.832 L 0.000 239.664 200.000 239.664 L 400.000 239.664 400.000 119.832 L 400.000 0.000 200.000 0.000 L 0.000 0.000 0.000 119.832 M252.547 28.765 C 257.674 29.441,261.259 31.786,264.379 36.507 C 268.213 42.307,268.669 49.175,266.268 64.949 C 261.469 96.473,262.757 114.839,272.014 146.914 C 279.333 172.273,280.087 175.179,281.148 182.088 C 283.531 197.626,277.140 208.378,263.436 211.883 C 255.636 213.877,242.315 211.379,233.638 206.293 C 218.108 197.190,200.956 191.615,179.629 188.737 C 171.625 187.657,164.575 187.365,147.385 187.400 C 123.149 187.450,116.449 186.504,109.868 182.102 C 101.556 176.542,99.850 168.010,103.434 149.910 C 106.041 136.744,117.129 116.063,129.348 101.573 C 140.438 88.422,147.459 81.584,161.113 70.631 C 173.124 60.997,186.920 51.773,199.641 44.872 C 211.009 38.704,236.254 29.699,244.817 28.756 C 248.957 28.301,249.021 28.301,252.547 28.765 M157.533 85.563 C 156.332 86.046,156.227 86.580,156.307 91.774 L 156.381 96.590 157.608 97.785 C 159.221 99.355,159.132 98.289,159.135 116.028 C 159.138 133.400,159.219 132.398,157.668 133.958 C 156.182 135.452,156.063 137.070,157.393 137.719 C 157.627 137.833,164.506 137.981,172.678 138.047 C 188.198 138.172,188.180 138.171,188.745 139.262 C 189.602 140.921,189.119 142.861,187.394 144.685 C 184.180 148.084,184.753 152.494,188.663 154.442 C 194.844 157.522,200.017 149.829,195.179 144.751 C 193.416 142.900,193.000 141.450,193.674 139.515 C 194.154 138.137,193.720 138.176,210.027 138.047 L 225.088 137.927 225.546 137.361 C 226.367 136.346,226.157 135.223,224.907 133.955 C 224.202 133.238,223.734 132.510,223.593 131.909 C 223.362 130.927,223.331 114.925,223.541 104.973 L 223.664 99.101 224.692 98.108 C 226.243 96.608,226.243 96.609,226.243 91.429 L 226.243 86.722 225.543 86.021 L 224.842 85.321 191.450 85.336 C 172.741 85.344,157.828 85.444,157.533 85.563 M221.058 90.131 C 221.876 90.775,221.942 92.208,221.185 92.893 C 220.696 93.336,219.810 93.351,191.364 93.412 L 162.046 93.475 161.391 92.911 C 160.492 92.138,160.491 90.967,161.387 90.196 L 162.040 89.635 191.233 89.635 C 220.405 89.635,220.427 89.635,221.058 90.131 M217.438 98.036 C 219.154 98.513,219.064 97.564,219.122 115.829 C 219.179 134.219,219.257 133.374,217.470 133.764 C 216.534 133.969,165.642 133.968,164.911 133.763 C 163.263 133.302,163.331 134.072,163.331 115.877 C 163.331 97.682,163.263 98.453,164.911 97.992 C 165.906 97.714,216.430 97.756,217.438 98.036 M169.506 102.604 C 168.081 103.016,167.600 104.715,168.583 105.858 L 169.162 106.531 172.513 106.531 C 176.648 106.531,177.704 105.843,176.884 103.685 C 176.419 102.463,172.155 101.839,169.506 102.604 M204.499 103.968 C 202.824 104.490,202.474 106.168,203.715 107.729 C 204.948 109.281,204.881 109.403,200.300 114.032 C 194.395 119.997,195.041 119.954,189.552 114.746 C 183.518 109.019,184.629 108.854,177.090 116.597 C 169.952 123.927,169.844 124.090,171.229 125.475 C 172.492 126.738,172.845 126.527,178.066 121.401 C 184.414 115.168,183.765 115.219,189.187 120.524 C 195.026 126.237,193.968 126.364,201.443 119.047 C 208.511 112.129,208.110 112.387,209.706 113.721 C 210.943 114.754,212.075 114.849,212.934 113.991 C 214.124 112.800,214.171 105.734,212.997 104.559 C 212.318 103.880,206.158 103.451,204.499 103.968 M206.220 125.693 C 205.101 126.812,205.624 128.688,207.162 129.074 C 208.783 129.481,213.570 129.077,214.042 128.494 C 215.751 126.380,214.254 125.105,210.066 125.105 C 206.927 125.105,206.787 125.126,206.220 125.693 M192.211 148.113 C 193.539 149.441,191.646 151.374,190.253 150.113 C 189.387 149.329,190.071 147.633,191.252 147.633 C 191.516 147.633,191.947 147.849,192.211 148.113 " stroke="none" fill="#FFFFFF" fill-rule="evenodd"></path><path id="path3" d="M121.048 118.546 C 120.775 118.894,120.551 119.271,120.551 119.385 C 120.551 119.670,120.969 119.647,121.150 119.353 C 121.389 118.967,122.469 119.065,122.469 119.473 C 122.469 119.732,122.735 119.832,123.427 119.832 C 124.210 119.832,124.386 119.916,124.386 120.288 C 124.386 120.655,124.609 120.769,125.524 120.871 C 127.957 121.141,130.035 121.582,130.408 121.908 C 130.622 122.096,131.215 122.317,131.726 122.399 C 132.236 122.481,132.763 122.696,132.897 122.876 C 133.036 123.065,133.878 123.283,134.874 123.390 C 135.977 123.508,136.718 123.712,136.908 123.950 C 137.212 124.330,139.015 124.865,139.991 124.865 C 140.285 124.865,140.696 125.008,140.904 125.183 C 141.393 125.595,143.046 126.064,144.007 126.064 C 144.421 126.064,145.162 126.279,145.653 126.543 C 146.145 126.806,146.684 127.022,146.851 127.022 C 147.018 127.022,147.154 127.130,147.154 127.262 C 147.154 127.394,147.633 127.501,148.218 127.501 C 148.804 127.501,149.349 127.609,149.431 127.741 C 149.512 127.873,149.883 127.981,150.254 127.981 C 150.626 127.981,151.064 128.143,151.228 128.340 C 151.392 128.538,151.878 128.700,152.307 128.700 C 152.736 128.700,153.221 128.862,153.385 129.059 C 153.549 129.257,153.905 129.419,154.175 129.419 C 154.445 129.419,154.863 129.597,155.104 129.815 C 155.521 130.193,155.542 130.170,155.542 129.336 C 155.542 128.854,155.430 128.460,155.293 128.460 C 155.155 128.460,154.827 128.259,154.563 128.013 C 154.270 127.740,153.564 127.513,152.749 127.429 C 151.797 127.330,151.318 127.155,151.082 126.818 C 150.825 126.450,150.349 126.307,148.952 126.176 C 147.963 126.083,147.154 125.912,147.154 125.796 C 147.154 125.679,147.005 125.584,146.822 125.584 C 146.639 125.584,146.181 125.423,145.803 125.226 C 145.426 125.029,144.669 124.867,144.121 124.867 C 143.267 124.865,141.313 124.116,140.923 123.641 C 140.857 123.561,139.994 123.417,139.005 123.321 C 137.755 123.200,137.086 123.017,136.807 122.718 C 136.587 122.482,135.915 122.215,135.315 122.125 C 134.714 122.035,134.160 121.860,134.084 121.736 C 134.007 121.612,133.687 121.510,133.373 121.510 C 133.059 121.510,132.736 121.402,132.654 121.270 C 132.573 121.138,132.148 121.031,131.711 121.031 C 131.273 121.031,130.781 120.869,130.617 120.671 C 130.453 120.473,129.968 120.312,129.539 120.312 C 129.110 120.312,128.624 120.150,128.460 119.952 C 128.296 119.754,127.804 119.593,127.366 119.593 C 126.929 119.593,126.504 119.485,126.423 119.353 C 126.342 119.221,125.910 119.113,125.464 119.113 C 125.019 119.113,124.587 119.005,124.506 118.874 C 124.424 118.742,124.175 118.633,123.952 118.632 C 123.729 118.632,123.238 118.470,122.861 118.273 C 121.908 117.776,121.619 117.820,121.048 118.546 M197.244 141.821 C 197.244 142.386,198.392 143.080,199.327 143.080 C 199.878 143.080,200.424 143.228,200.585 143.422 C 200.747 143.617,201.557 143.834,202.471 143.928 C 203.468 144.031,204.256 144.253,204.554 144.517 C 204.817 144.749,205.521 145.010,206.118 145.095 C 206.714 145.180,207.499 145.404,207.862 145.592 C 208.440 145.892,209.646 146.194,211.930 146.610 C 212.296 146.676,212.700 146.927,212.828 147.166 C 213.010 147.505,213.483 147.637,214.979 147.768 C 216.362 147.888,216.896 148.026,216.896 148.263 C 216.896 148.488,217.206 148.592,217.877 148.592 C 218.636 148.592,218.885 148.694,218.976 149.042 C 219.059 149.357,219.396 149.539,220.092 149.644 C 220.641 149.727,221.522 149.860,222.049 149.940 C 222.576 150.020,223.170 150.220,223.367 150.385 C 223.565 150.550,224.305 150.749,225.012 150.829 C 226.315 150.974,227.681 151.447,227.681 151.752 C 227.681 151.843,228.450 151.994,229.390 152.087 C 230.732 152.219,231.123 152.346,231.209 152.677 C 231.319 153.096,231.689 153.202,234.208 153.535 C 234.831 153.618,235.465 153.833,235.615 154.014 C 235.765 154.196,236.253 154.344,236.698 154.344 C 237.143 154.344,237.507 154.452,237.507 154.584 C 237.507 154.715,237.912 154.825,238.406 154.826 C 238.924 154.828,239.904 155.133,240.717 155.545 C 241.493 155.939,242.485 156.261,242.920 156.261 C 243.355 156.261,243.777 156.369,243.859 156.501 C 243.940 156.633,244.366 156.741,244.806 156.741 C 245.295 156.741,245.658 156.880,245.743 157.100 C 245.826 157.316,246.195 157.463,246.667 157.467 C 247.100 157.471,247.663 157.633,247.919 157.827 C 248.175 158.020,248.734 158.179,249.163 158.179 C 249.591 158.179,250.008 158.286,250.090 158.418 C 250.171 158.550,250.603 158.658,251.049 158.658 C 251.494 158.658,251.926 158.766,252.007 158.898 C 252.089 159.029,252.555 159.137,253.043 159.137 C 253.733 159.137,253.983 159.257,254.167 159.675 C 254.349 160.090,254.679 160.251,255.602 160.377 C 258.966 160.836,260.276 161.136,260.276 161.448 C 260.276 161.659,260.565 161.774,261.100 161.774 C 261.554 161.774,261.992 161.881,262.073 162.013 C 262.155 162.145,262.576 162.253,263.009 162.253 C 263.479 162.253,263.963 162.437,264.210 162.710 C 264.501 163.032,265.106 163.215,266.267 163.331 C 267.410 163.446,268.034 163.632,268.314 163.941 C 268.595 164.252,269.216 164.435,270.368 164.549 C 271.276 164.638,272.019 164.803,272.019 164.915 C 272.019 165.026,272.457 165.329,272.992 165.588 L 273.965 166.058 273.891 165.414 C 273.839 164.959,273.589 164.664,273.043 164.410 C 272.617 164.212,272.267 163.916,272.264 163.751 C 272.261 163.575,271.936 163.448,271.480 163.444 C 271.052 163.439,270.492 163.278,270.236 163.084 C 269.980 162.891,269.479 162.732,269.123 162.732 C 268.767 162.732,268.413 162.570,268.338 162.373 C 268.233 162.100,267.791 162.013,266.513 162.013 C 265.028 162.013,264.766 161.944,264.323 161.435 C 263.937 160.990,263.479 160.818,262.347 160.691 C 261.471 160.592,260.681 160.352,260.395 160.098 C 260.132 159.862,259.539 159.609,259.077 159.535 C 257.101 159.216,256.519 159.078,255.806 158.758 C 255.390 158.571,254.824 158.418,254.547 158.418 C 254.271 158.418,254.044 158.310,254.044 158.179 C 254.044 158.047,253.619 157.939,253.100 157.939 C 252.580 157.939,252.089 157.831,252.007 157.699 C 251.926 157.567,251.540 157.460,251.149 157.460 C 250.759 157.460,250.013 157.190,249.491 156.860 C 248.816 156.434,248.206 156.261,247.380 156.261 C 246.467 156.261,246.104 156.139,245.684 155.691 C 245.285 155.268,244.779 155.080,243.705 154.958 C 242.326 154.802,241.947 154.692,240.227 153.951 C 239.812 153.772,239.037 153.625,238.506 153.625 C 237.769 153.625,237.506 153.517,237.396 153.172 C 237.238 152.673,236.728 152.532,233.793 152.169 C 232.208 151.974,231.791 151.830,231.387 151.341 C 231.009 150.882,230.671 150.749,229.889 150.749 C 229.334 150.749,228.880 150.641,228.880 150.509 C 228.880 150.377,228.562 150.270,228.175 150.270 C 227.787 150.270,227.403 150.162,227.322 150.030 C 227.240 149.898,226.799 149.790,226.341 149.790 C 225.823 149.790,225.457 149.655,225.371 149.431 C 225.284 149.205,224.910 149.068,224.360 149.064 C 223.880 149.059,223.278 148.898,223.022 148.704 C 222.766 148.511,222.260 148.352,221.898 148.352 C 221.535 148.352,221.172 148.244,221.090 148.113 C 221.009 147.981,220.624 147.873,220.234 147.873 C 219.845 147.873,219.339 147.771,219.110 147.646 C 218.881 147.522,218.289 147.355,217.795 147.276 C 217.301 147.197,216.896 147.029,216.896 146.903 C 216.896 146.778,216.600 146.674,216.237 146.673 C 215.875 146.672,215.269 146.511,214.892 146.314 C 214.514 146.117,213.907 145.956,213.543 145.956 C 213.179 145.956,212.756 145.805,212.603 145.621 C 212.451 145.438,211.979 145.227,211.555 145.153 C 209.697 144.831,209.077 144.669,208.628 144.386 C 208.364 144.220,207.555 144.012,206.830 143.924 C 204.968 143.698,204.673 143.584,204.673 143.092 C 204.673 142.724,204.387 142.630,202.816 142.485 C 201.794 142.390,200.851 142.229,200.719 142.126 C 200.355 141.843,197.244 141.569,197.244 141.821 " stroke="none" fill="#90bc39" fill-rule="evenodd"></path><path id="path4" d="M121.150 119.353 C 121.069 119.485,120.807 119.593,120.568 119.593 C 120.176 119.593,119.291 120.440,117.722 122.320 C 113.078 127.883,106.275 142.463,104.500 150.658 C 100.583 168.734,102.606 177.400,111.923 182.458 C 118.450 186.000,123.164 186.534,148.352 186.579 C 168.241 186.614,171.417 186.728,178.790 187.667 C 200.385 190.418,218.380 196.166,233.553 205.160 C 243.993 211.349,257.752 213.329,266.317 209.875 C 279.011 204.756,282.945 193.673,278.114 176.633 C 275.947 168.991,274.652 166.254,272.847 165.499 C 272.391 165.309,272.019 165.054,272.019 164.932 C 272.019 164.811,271.276 164.638,270.368 164.549 C 269.216 164.435,268.595 164.252,268.314 163.941 C 268.034 163.632,267.410 163.446,266.267 163.331 C 265.106 163.215,264.501 163.032,264.210 162.710 C 263.963 162.437,263.479 162.253,263.009 162.253 C 262.576 162.253,262.155 162.145,262.073 162.013 C 261.992 161.881,261.554 161.774,261.100 161.774 C 260.565 161.774,260.276 161.659,260.276 161.448 C 260.276 161.136,258.966 160.836,255.602 160.377 C 254.679 160.251,254.349 160.090,254.167 159.675 C 253.983 159.257,253.733 159.137,253.043 159.137 C 252.555 159.137,252.089 159.029,252.007 158.898 C 251.926 158.766,251.494 158.658,251.049 158.658 C 250.603 158.658,250.171 158.550,250.090 158.418 C 250.008 158.286,249.591 158.179,249.163 158.179 C 248.734 158.179,248.175 158.020,247.919 157.827 C 247.663 157.633,247.100 157.471,246.667 157.467 C 246.195 157.463,245.826 157.316,245.743 157.100 C 245.658 156.880,245.295 156.741,244.806 156.741 C 244.366 156.741,243.940 156.633,243.859 156.501 C 243.777 156.369,243.355 156.261,242.920 156.261 C 242.485 156.261,241.493 155.939,240.717 155.545 C 239.904 155.133,238.924 154.828,238.406 154.826 C 237.912 154.825,237.507 154.715,237.507 154.584 C 237.507 154.452,237.143 154.344,236.698 154.344 C 236.253 154.344,235.765 154.196,235.615 154.014 C 235.465 153.833,234.831 153.618,234.208 153.535 C 231.689 153.202,231.319 153.096,231.209 152.677 C 231.123 152.346,230.732 152.219,229.390 152.087 C 228.450 151.994,227.681 151.843,227.681 151.752 C 227.681 151.447,226.315 150.974,225.012 150.829 C 224.305 150.749,223.565 150.550,223.367 150.385 C 223.170 150.220,222.576 150.020,222.049 149.940 C 221.522 149.860,220.641 149.727,220.092 149.644 C 219.396 149.539,219.059 149.357,218.976 149.042 C 218.885 148.694,218.636 148.592,217.877 148.592 C 217.206 148.592,216.896 148.488,216.896 148.263 C 216.896 148.026,216.362 147.888,214.979 147.768 C 213.483 147.637,213.010 147.505,212.828 147.166 C 212.700 146.927,212.296 146.676,211.930 146.610 C 209.646 146.194,208.440 145.892,207.862 145.592 C 207.499 145.404,206.714 145.180,206.118 145.095 C 205.521 145.010,204.817 144.749,204.554 144.517 C 204.256 144.253,203.468 144.031,202.471 143.928 C 201.557 143.834,200.747 143.617,200.585 143.422 C 200.344 143.131,198.442 142.907,198.442 143.169 C 198.442 143.218,198.722 144.108,199.065 145.146 C 201.957 153.921,191.586 160.798,185.468 154.162 C 182.666 151.122,182.826 144.521,185.746 142.717 C 186.473 142.267,185.978 141.225,184.961 141.065 C 183.891 140.896,174.497 140.552,164.170 140.304 C 155.998 140.108,155.225 139.861,154.449 137.192 C 153.911 135.343,154.508 132.335,155.539 131.698 C 156.305 131.224,155.227 129.419,154.178 129.419 C 153.906 129.419,153.549 129.257,153.385 129.059 C 153.221 128.862,152.736 128.700,152.307 128.700 C 151.878 128.700,151.392 128.538,151.228 128.340 C 151.064 128.143,150.626 127.981,150.254 127.981 C 149.883 127.981,149.512 127.873,149.431 127.741 C 149.349 127.609,148.804 127.501,148.218 127.501 C 147.633 127.501,147.154 127.394,147.154 127.262 C 147.154 127.130,147.018 127.022,146.851 127.022 C 146.684 127.022,146.145 126.806,145.653 126.543 C 145.162 126.279,144.421 126.064,144.007 126.064 C 143.046 126.064,141.393 125.595,140.904 125.183 C 140.696 125.008,140.285 124.865,139.991 124.865 C 139.015 124.865,137.212 124.330,136.908 123.950 C 136.718 123.712,135.977 123.508,134.874 123.390 C 133.878 123.283,133.036 123.065,132.897 122.876 C 132.763 122.696,132.236 122.481,131.726 122.399 C 131.215 122.317,130.622 122.096,130.408 121.908 C 130.035 121.582,127.957 121.141,125.524 120.871 C 124.609 120.769,124.386 120.655,124.386 120.288 C 124.386 119.916,124.210 119.832,123.427 119.832 C 122.735 119.832,122.469 119.732,122.469 119.473 C 122.469 119.065,121.389 118.967,121.150 119.353 " stroke="none" fill="#8ebc3a" fill-rule="evenodd"></path></g></svg>